<svg width="33" height="44" viewBox="0 0 33 44" fill="none" xmlns="http://www.w3.org/2000/svg">
<path d="M32.442 41.1642L32.442 2.16418C32.4408 1.76933 32.3319 1.38228 32.127 1.04472C31.9222 0.70715 31.6292 0.431839 31.2795 0.248425C30.9298 0.0650066 30.5368 -0.0195728 30.1426 0.00379217C29.7484 0.0271534 29.3681 0.157574 29.0425 0.381012L0.875875 19.881C-0.291958 20.6892 -0.291958 22.6348 0.875875 23.4452L29.0425 42.9452C29.3674 43.1709 29.7479 43.3033 30.1428 43.3279C30.5376 43.3525 30.9316 43.2685 31.282 43.0849C31.6324 42.9013 31.9258 42.6252 32.1303 42.2866C32.3349 41.948 32.4427 41.5598 32.442 41.1642ZM5.91554 21.6642L28.1087 6.29818L28.1087 37.0302L5.91554 21.6642Z" fill="#A3A3A3"/>
</svg>
