<svg width="33" height="44" viewBox="0 0 33 44" fill="none" xmlns="http://www.w3.org/2000/svg">
<path d="M0.441997 2.16791L0.441996 41.1679C0.443235 41.5628 0.552137 41.9498 0.756983 42.2874C0.961826 42.6249 1.25485 42.9003 1.60453 43.0837C1.9542 43.2671 2.34728 43.3517 2.74144 43.3283C3.13561 43.3049 3.51594 43.1745 3.8415 42.9511L32.0082 23.4511C33.176 22.6429 33.176 20.6972 32.0082 19.8869L3.8415 0.386908C3.51662 0.161196 3.1361 0.0288325 2.74128 0.00419969C2.34645 -0.0204331 1.95243 0.0636068 1.60202 0.247189C1.2516 0.43077 0.958199 0.706873 0.753685 1.0455C0.549175 1.38412 0.441376 1.77232 0.441997 2.16791ZM26.9685 21.6679L4.77533 37.0339L4.77533 6.30191L26.9685 21.6679Z" fill="#A3A3A3"/>
</svg>
