<svg width="72" height="71" viewBox="0 0 72 71" fill="none" xmlns="http://www.w3.org/2000/svg">
<path d="M56.5304 32.7083H38.7584V14.9583C38.7584 14.1737 38.4463 13.4213 37.8908 12.8665C37.3353 12.3117 36.5819 12 35.7964 12C35.0108 12 34.2574 12.3117 33.7019 12.8665C33.1464 13.4213 32.8344 14.1737 32.8344 14.9583V32.7083H15.0624C14.2768 32.7083 13.5234 33.02 12.9679 33.5748C12.4124 34.1296 12.1004 34.8821 12.1004 35.6667C12.1004 36.4513 12.4124 37.2037 12.9679 37.7585C13.5234 38.3133 14.2768 38.625 15.0624 38.625H32.8344V56.375C32.8344 57.1596 33.1464 57.9121 33.7019 58.4669C34.2574 59.0217 35.0108 59.3333 35.7964 59.3333C36.5819 59.3333 37.3353 59.0217 37.8908 58.4669C38.4463 57.9121 38.7584 57.1596 38.7584 56.375V38.625H56.5304C57.3159 38.625 58.0693 38.3133 58.6248 37.7585C59.1803 37.2037 59.4924 36.4513 59.4924 35.6667C59.4924 34.8821 59.1803 34.1296 58.6248 33.5748C58.0693 33.02 57.3159 32.7083 56.5304 32.7083Z" fill="#475467"/>
</svg>
